<?xml version="1.0" encoding="UTF-8"?>
<svg xmlns="http://www.w3.org/2000/svg" xmlns:xlink="http://www.w3.org/1999/xlink" width="30pt" height="30pt" viewBox="0 0 50 50" version="1.1">
<g id="surface1">
<path style=" stroke:none;fill-rule:nonzero;fill:#008593;fill-opacity:1;" d="M 0.773438 25 C 0.773438 11.621094 11.621094 0.773438 25 0.773438 C 38.378906 0.773438 49.226563 11.621094 49.226563 25 C 49.226563 38.378906 38.378906 49.226563 25 49.226563 C 11.621094 49.226563 0.773438 38.378906 0.773438 25 Z "/>
<path style=" stroke:none;fill-rule:nonzero;fill:#FFC50B;fill-opacity:1;" d="M 25.253906 14.667969 L 26.90625 18.007813 L 30.585938 18.546875 L 27.917969 21.140625 L 28.554688 24.8125 L 25.253906 23.078125 L 21.960938 24.8125 L 22.597656 21.140625 L 19.929688 18.546875 L 23.613281 18.007813 Z "/>
<path style=" stroke:none;fill-rule:nonzero;fill:#FFC50B;fill-opacity:1;" d="M 38.730469 14.667969 L 40.382813 18.007813 L 44.0625 18.546875 L 41.398438 21.140625 L 42.023438 24.8125 L 38.730469 23.078125 L 35.4375 24.8125 L 36.0625 21.140625 L 33.398438 18.546875 L 37.078125 18.007813 Z "/>
<path style=" stroke:none;fill-rule:nonzero;fill:#51B0B9;fill-opacity:1;" d="M 31.515625 26.941406 L 33.164063 30.285156 L 36.84375 30.8125 L 34.179688 33.40625 L 34.8125 37.078125 L 31.515625 35.351563 L 28.222656 37.078125 L 28.859375 33.40625 L 26.191406 30.8125 L 29.871094 30.285156 Z "/>
<path style=" stroke:none;fill-rule:nonzero;fill:#FFC50B;fill-opacity:1;" d="M 11.140625 14.582031 L 12.792969 17.910156 L 16.476563 18.445313 L 13.808594 21.046875 L 14.445313 24.71875 L 11.140625 22.976563 L 7.851563 24.71875 L 8.484375 21.046875 L 5.820313 18.445313 L 9.5 17.910156 Z "/>
<path style=" stroke:none;fill-rule:nonzero;fill:#FFC50B;fill-opacity:1;" d="M 18.144531 26.484375 L 19.785156 29.824219 L 23.476563 30.359375 L 20.8125 32.960938 L 21.4375 36.621094 L 18.144531 34.890625 L 14.84375 36.621094 L 15.476563 32.960938 L 12.8125 30.359375 L 16.492188 29.824219 Z "/>
</g>
</svg>
