<?xml version="1.0" encoding="UTF-8"?>
<svg xmlns="http://www.w3.org/2000/svg" xmlns:xlink="http://www.w3.org/1999/xlink" width="15pt" height="15pt" viewBox="0 0 480 480" version="1.1">
<g id="surface1">
<path style=" stroke:none;fill-rule:nonzero;fill:#000000;fill-opacity:1;" d="M 142.105469 394.738281 L 63.15625 394.738281 L 63.15625 157.894531 L 142.105469 157.894531 Z M 102.632813 126.316406 C 80.796875 126.316406 63.15625 108.613281 63.15625 86.84375 C 63.15625 65.007813 80.859375 47.367188 102.632813 47.367188 C 124.402344 47.367188 142.105469 65.070313 142.105469 86.84375 C 142.105469 108.613281 124.402344 126.316406 102.632813 126.316406 Z M 426.316406 394.738281 L 350.390625 394.738281 L 350.390625 279.460938 C 350.390625 252.015625 349.898438 216.613281 310.980469 216.613281 C 271.441406 216.613281 265.335938 246.585938 265.335938 277.488281 L 265.335938 394.738281 L 189.472656 394.738281 L 189.472656 157.710938 L 262.316406 157.710938 L 262.316406 190.089844 L 263.363281 190.089844 C 273.480469 171.464844 298.273438 151.851563 335.21875 151.851563 C 412.128906 151.851563 426.316406 200.945313 426.316406 264.71875 C 426.316406 264.71875 426.316406 394.738281 426.316406 394.738281 Z "/>
</g>
</svg>
