<?xml version="1.0" encoding="UTF-8"?>
<svg xmlns="http://www.w3.org/2000/svg" xmlns:xlink="http://www.w3.org/1999/xlink" width="16pt" height="16pt" viewBox="0 0 500 500" version="1.1">
<g id="surface1">
<path style=" stroke:none;fill-rule:nonzero;fill:#A5A5A5;fill-opacity:1;" d="M 248.015625 9.921875 C 182.175781 9.921875 128.96875 63.128906 128.96875 128.96875 L 128.96875 178.570313 L 89.285156 178.570313 C 72.972656 178.570313 59.523438 192.019531 59.523438 208.332031 L 59.523438 446.429688 C 59.523438 462.742188 72.972656 476.191406 89.285156 476.191406 L 406.746094 476.191406 C 423.0625 476.191406 436.507813 462.742188 436.507813 446.429688 L 436.507813 208.332031 C 436.507813 192.019531 423.0625 178.570313 406.746094 178.570313 L 367.0625 178.570313 L 367.0625 128.96875 C 367.0625 63.128906 313.855469 9.921875 248.015625 9.921875 Z M 248.015625 29.761719 C 303.238281 29.761719 347.222656 73.746094 347.222656 128.96875 L 347.222656 178.570313 L 148.808594 178.570313 L 148.808594 128.96875 C 148.808594 73.746094 192.792969 29.761719 248.015625 29.761719 Z M 89.285156 198.414063 L 406.746094 198.414063 C 412.25 198.414063 416.667969 202.832031 416.667969 208.332031 L 416.667969 446.429688 C 416.667969 451.929688 412.25 456.347656 406.746094 456.347656 L 89.285156 456.347656 C 83.78125 456.347656 79.363281 451.929688 79.363281 446.429688 L 79.363281 208.332031 C 79.363281 202.832031 83.78125 198.414063 89.285156 198.414063 Z M 248.015625 248.015625 C 204.304688 248.015625 168.652344 283.667969 168.652344 327.382813 C 168.652344 371.09375 204.304688 406.746094 248.015625 406.746094 C 291.730469 406.746094 327.382813 371.09375 327.382813 327.382813 C 327.382813 283.667969 291.730469 248.015625 248.015625 248.015625 Z M 248.015625 267.855469 C 280.996094 267.855469 307.539063 294.402344 307.539063 327.382813 C 307.539063 360.359375 280.996094 386.90625 248.015625 386.90625 C 215.039063 386.90625 188.492188 360.359375 188.492188 327.382813 C 188.492188 294.402344 215.039063 267.855469 248.015625 267.855469 Z M 248.015625 287.699219 C 226.199219 287.699219 208.332031 305.5625 208.332031 327.382813 C 208.332031 349.199219 226.199219 367.0625 248.015625 367.0625 C 269.832031 367.0625 287.699219 349.199219 287.699219 327.382813 C 287.699219 323.429688 286.847656 319.554688 285.839844 315.601563 C 282.855469 322.535156 275.800781 327.382813 267.855469 327.382813 C 256.929688 327.382813 248.015625 318.46875 248.015625 307.539063 C 248.015625 299.59375 252.859375 292.542969 259.796875 289.558594 C 255.84375 288.550781 251.96875 287.699219 248.015625 287.699219 Z "/>
</g>
</svg>
