<?xml version="1.0" encoding="UTF-8"?>
<svg xmlns="http://www.w3.org/2000/svg" xmlns:xlink="http://www.w3.org/1999/xlink" width="350pt" height="350pt" viewBox="0 0 50 50" version="1.1">
<g id="surface1">
<path style=" stroke:none;fill-rule:nonzero;fill:#E35E6A;fill-opacity:1;" d="M 9.867188 4.933594 C 8.960938 4.933594 8.222656 5.671875 8.222656 6.578125 C 8.222656 6.578125 8.222656 6.585938 8.222656 6.585938 L 8.222656 42.757813 C 8.222656 42.757813 8.222656 42.761719 8.222656 42.761719 C 8.222656 43.667969 8.960938 44.40625 9.867188 44.40625 C 10.207031 44.40625 10.542969 44.296875 10.820313 44.097656 L 10.824219 44.097656 L 43.449219 26.160156 C 44.027344 25.898438 44.40625 25.3125 44.40625 24.671875 C 44.40625 24.007813 44.007813 23.410156 43.40625 23.15625 L 10.824219 5.242188 L 10.820313 5.242188 C 10.542969 5.042969 10.207031 4.933594 9.867188 4.933594 Z "/>
</g>
</svg>
